<?xml version="1.0" encoding="UTF-8"?>
<svg xmlns="http://www.w3.org/2000/svg" viewBox="0 0 800 350">
  <defs>
    <style>
      .cls-1 {
        fill: #d5d947;
      }

      .cls-2 {
        fill: #fff;
      }

      .cls-3 {
        fill: #070b7f;
      }
    </style>
  </defs>
  <rect class="cls-2" width="800" height="350"/>
  <g id="Layer_1" data-name="Layer 1">
    <g>
      <g>
        <polygon class="cls-3" points="70.42 135.19 16.92 135.19 98.73 264.06 243.44 30.11 233.19 30.11 88.48 163.96 70.42 135.19"/>
        <polygon class="cls-1" points="54.99 195.15 68.96 217.17 233.19 30.11 54.99 195.15"/>
        <g>
          <path class="cls-3" d="M238.11,265.37c-11.9,0-22.43-2.73-31.6-8.18s-16.36-13.05-21.56-22.8c-5.2-9.75-7.81-21.15-7.81-34.2s2.52-24.49,7.56-34.32c5.04-9.83,12.22-17.51,21.56-23.05,9.33-5.53,20.11-8.3,32.34-8.3s22.71,2.73,31.47,8.18c8.75,5.45,15.49,12.64,20.2,21.56,4.71,8.92,7.06,18.83,7.06,29.74v5.45c0,1.98-.17,4.05-.5,6.2h-101.61v-17.35h77.57c-.5-10.24-3.97-18.34-10.41-24.29-6.44-5.95-14.46-8.92-24.04-8.92-6.78,0-12.97,1.53-18.59,4.59-5.62,3.06-10.08,7.52-13.38,13.38-3.31,5.87-4.96,13.26-4.96,22.18v6.94c0,9.26,1.65,17.02,4.96,23.3,3.3,6.28,7.72,11.07,13.26,14.37,5.53,3.31,11.69,4.96,18.46,4.96,7.93,0,14.5-1.73,19.7-5.2,5.2-3.47,8.96-8.18,11.28-14.13h24.78c-2.15,7.6-5.79,14.42-10.9,20.45-5.12,6.03-11.4,10.78-18.83,14.25-7.43,3.47-16.11,5.2-26.02,5.2Z"/>
          <path class="cls-3" d="M357.31,265.37c-10.9,0-20.28-1.78-28.13-5.33-7.85-3.55-14.04-8.43-18.59-14.62-4.55-6.2-7.31-13.51-8.3-21.93h25.03c.83,3.97,2.44,7.6,4.83,10.9,2.39,3.31,5.7,5.95,9.91,7.93,4.21,1.98,9.29,2.97,15.24,2.97,5.29,0,9.7-.78,13.26-2.35,3.55-1.57,6.2-3.72,7.93-6.44s2.6-5.66,2.6-8.8c0-4.62-1.12-8.14-3.35-10.53-2.23-2.39-5.58-4.34-10.04-5.82-4.46-1.49-9.83-2.73-16.11-3.72-5.45-1.15-10.9-2.56-16.36-4.21-5.45-1.65-10.28-3.84-14.5-6.57-4.21-2.73-7.56-6.07-10.04-10.04-2.48-3.97-3.72-8.92-3.72-14.87,0-7.1,1.86-13.51,5.58-19.21,3.72-5.7,9.13-10.16,16.23-13.38,7.1-3.22,15.45-4.83,25.03-4.83,13.88,0,25.03,3.27,33.46,9.79,8.43,6.53,13.46,15.9,15.12,28.13h-24.04c-.83-5.62-3.35-9.99-7.56-13.14-4.21-3.14-9.96-4.71-17.22-4.71s-12.56,1.45-16.36,4.34c-3.8,2.89-5.7,6.57-5.7,11.03,0,2.97,1.12,5.62,3.35,7.93,2.23,2.32,5.41,4.3,9.54,5.95,4.13,1.65,9.25,3.06,15.37,4.21,8.76,1.65,16.6,3.76,23.54,6.32,6.94,2.56,12.52,6.24,16.73,11.03,4.21,4.79,6.32,11.65,6.32,20.57,0,7.93-2.03,14.83-6.07,20.69-4.05,5.87-9.75,10.45-17.1,13.75-7.35,3.3-15.98,4.96-25.9,4.96Z"/>
          <path class="cls-3" d="M465.61,262.4c-7.93,0-14.79-1.24-20.57-3.72-5.79-2.48-10.25-6.61-13.38-12.39-3.14-5.78-4.71-13.63-4.71-23.54v-64.43h-21.56v-20.82h21.56l3.22-31.47h21.56v31.47h35.19v20.82h-35.19v64.68c0,7.11,1.49,11.94,4.46,14.5,2.97,2.56,8.09,3.84,15.37,3.84h14.37v21.07h-20.32Z"/>
          <path class="cls-3" d="M512.2,113.95c-4.79,0-8.72-1.49-11.77-4.46-3.06-2.97-4.58-6.77-4.58-11.4s1.53-8.14,4.58-11.03c3.06-2.89,6.98-4.34,11.77-4.34s8.51,1.45,11.65,4.34c3.14,2.89,4.71,6.57,4.71,11.03s-1.57,8.43-4.71,11.4c-3.14,2.97-7.02,4.46-11.65,4.46ZM499.81,262.4v-124.9h24.78v124.9h-24.78Z"/>
          <path class="cls-3" d="M594.48,319.89c-11.4,0-21.48-1.45-30.24-4.34-8.76-2.89-15.53-7.31-20.32-13.26-4.79-5.95-7.19-13.22-7.19-21.81,0-4.46.99-8.96,2.97-13.51,1.98-4.55,5.2-8.92,9.67-13.13,4.46-4.21,10.49-7.89,18.09-11.03l13.88,10.9c-8.43,3.31-14.09,7.15-16.98,11.52-2.89,4.38-4.34,8.55-4.34,12.51,0,5.12,1.49,9.33,4.46,12.64,2.97,3.3,7.1,5.78,12.39,7.43,5.29,1.65,11.15,2.48,17.6,2.48s12.27-.91,16.98-2.73c4.71-1.82,8.38-4.34,11.03-7.56,2.64-3.22,3.97-7.06,3.97-11.52,0-5.62-1.98-10.16-5.95-13.63-3.97-3.47-11.57-5.53-22.8-6.2-9.25-.66-17.19-1.61-23.79-2.85-6.61-1.24-12.14-2.64-16.6-4.21-4.46-1.57-8.26-3.38-11.4-5.45-3.14-2.06-5.79-4.17-7.93-6.32v-5.7l24.78-25.28,20.07,6.94-27.01,24.78,5.2-11.15c1.82,1.32,3.59,2.52,5.33,3.59,1.73,1.08,3.97,2.03,6.69,2.85,2.73.83,6.48,1.57,11.28,2.23,4.79.66,10.99,1.32,18.59,1.98,11.4.83,20.57,2.77,27.51,5.82,6.94,3.06,11.93,7.23,14.99,12.51,3.06,5.29,4.59,11.73,4.59,19.33,0,7.1-1.94,13.84-5.82,20.2-3.88,6.36-9.91,11.6-18.09,15.74-8.18,4.13-18.71,6.2-31.6,6.2ZM594.48,223.99c-10.41,0-19.33-2.02-26.77-6.07-7.43-4.05-13.1-9.42-16.98-16.11-3.88-6.69-5.82-14.25-5.82-22.68s1.98-15.74,5.95-22.43c3.97-6.69,9.58-12.06,16.85-16.11,7.27-4.05,16.19-6.07,26.77-6.07s19.29,2.03,26.64,6.07c7.35,4.05,12.93,9.42,16.73,16.11,3.8,6.69,5.7,14.17,5.7,22.43s-1.9,15.99-5.7,22.68c-3.8,6.69-9.38,12.06-16.73,16.11-7.35,4.05-16.23,6.07-26.64,6.07ZM594.48,204.16c8.09,0,14.5-2.11,19.21-6.32,4.71-4.21,7.06-10.37,7.06-18.46s-2.35-14.25-7.06-18.46c-4.71-4.21-11.11-6.32-19.21-6.32s-14.42,2.11-19.45,6.32c-5.04,4.21-7.56,10.37-7.56,18.46s2.44,14.25,7.31,18.46c4.87,4.21,11.44,6.32,19.7,6.32ZM614.8,157.07l-5.95-19.58h51.3v16.85l-45.35,2.73Z"/>
          <path class="cls-3" d="M721.12,265.37c-11.9,0-22.55-2.73-31.97-8.18-9.42-5.45-16.77-13.09-22.06-22.92-5.29-9.83-7.93-21.19-7.93-34.08s2.68-24.74,8.05-34.57c5.37-9.83,12.76-17.47,22.18-22.92,9.42-5.45,19.99-8.18,31.72-8.18s22.47,2.73,31.72,8.18c9.25,5.45,16.6,13.05,22.06,22.8,5.45,9.75,8.18,21.23,8.18,34.45s-2.73,24.5-8.18,34.32c-5.45,9.83-12.85,17.47-22.18,22.92-9.34,5.45-19.87,8.18-31.6,8.18ZM720.87,244.06c6.61,0,12.68-1.65,18.22-4.96,5.53-3.3,10.04-8.26,13.51-14.87,3.47-6.61,5.2-14.7,5.2-24.29s-1.7-17.88-5.08-24.41c-3.39-6.52-7.81-11.44-13.26-14.74-5.45-3.3-11.49-4.96-18.09-4.96s-12.72,1.65-18.34,4.96c-5.62,3.31-10.12,8.22-13.51,14.74-3.39,6.53-5.08,14.66-5.08,24.41s1.69,17.68,5.08,24.29c3.38,6.61,7.81,11.57,13.26,14.87,5.45,3.31,11.48,4.96,18.09,4.96Z"/>
        </g>
      </g>
      <g>
        <path d="M99.07,319.16v-22.83h8.45c1.61,0,2.95.26,4.01.77,1.06.51,1.86,1.21,2.4,2.09.53.88.8,1.88.8,2.98s-.26,2.12-.77,2.9c-.51.78-1.17,1.39-1.99,1.81-.82.42-1.69.67-2.63.73l.49-.33c1,.02,1.91.29,2.72.8.82.51,1.47,1.19,1.96,2.04.49.85.73,1.78.73,2.8,0,1.17-.29,2.23-.86,3.18-.58.95-1.41,1.69-2.51,2.23-1.1.54-2.45.82-4.06.82h-8.74ZM102.33,306.18h4.83c1.37,0,2.41-.32,3.13-.96.72-.64,1.08-1.53,1.08-2.66s-.36-1.95-1.08-2.59-1.78-.96-3.2-.96h-4.76v7.17ZM102.33,316.45h5.06c1.41,0,2.52-.33,3.33-.99.8-.66,1.21-1.6,1.21-2.82s-.41-2.15-1.24-2.87-1.95-1.08-3.36-1.08h-4.99v7.76Z"/>
        <path d="M120.2,319.16v-22.83h14.41v2.67h-11.15v7.3h10.18v2.61h-10.18v7.57h11.15v2.67h-14.41Z"/>
        <path d="M147.92,319.16l8.38-22.83h3.55l8.38,22.83h-3.49l-6.69-18.92-6.72,18.92h-3.42ZM151.71,313.52l.91-2.61h10.73l.91,2.61h-12.56Z"/>
        <path d="M180.05,319.55c-1.65,0-3.11-.3-4.37-.9-1.26-.6-2.24-1.44-2.94-2.53-.7-1.09-1.04-2.36-1.04-3.82h3.42c0,.83.2,1.58.59,2.27.39.68.95,1.23,1.68,1.63.73.4,1.61.6,2.66.6.91,0,1.7-.15,2.36-.46.66-.3,1.17-.72,1.52-1.26.35-.53.52-1.15.52-1.84,0-.8-.18-1.46-.54-1.97s-.84-.93-1.45-1.27c-.61-.34-1.33-.64-2.15-.91-.83-.27-1.69-.55-2.58-.83-1.8-.61-3.15-1.38-4.03-2.32-.88-.93-1.32-2.15-1.32-3.65,0-1.28.3-2.4.9-3.34.6-.95,1.45-1.68,2.56-2.22,1.11-.53,2.4-.8,3.88-.8s2.8.27,3.9.82c1.1.54,1.96,1.29,2.59,2.25.63.96.96,2.08.98,3.36h-3.46c0-.59-.15-1.16-.46-1.73-.3-.56-.76-1.03-1.37-1.39-.61-.36-1.36-.54-2.25-.54-.74-.02-1.4.1-1.99.36-.59.26-1.05.64-1.39,1.14-.34.5-.51,1.1-.51,1.79s.15,1.26.46,1.68c.3.42.73.79,1.29,1.09.55.3,1.21.58,1.97.83.76.25,1.6.53,2.51.83,1.11.37,2.11.82,3,1.35.89.53,1.59,1.22,2.1,2.05s.77,1.91.77,3.21c0,1.13-.29,2.19-.88,3.16-.59.98-1.46,1.78-2.61,2.4-1.15.62-2.6.93-4.34.93Z"/>
        <path d="M200.3,319.55c-1.65,0-3.11-.3-4.37-.9-1.26-.6-2.24-1.44-2.94-2.53-.7-1.09-1.04-2.36-1.04-3.82h3.42c0,.83.2,1.58.59,2.27.39.68.95,1.23,1.68,1.63.73.4,1.61.6,2.66.6.91,0,1.7-.15,2.36-.46.66-.3,1.17-.72,1.52-1.26.35-.53.52-1.15.52-1.84,0-.8-.18-1.46-.54-1.97s-.84-.93-1.45-1.27c-.61-.34-1.33-.64-2.15-.91-.83-.27-1.69-.55-2.58-.83-1.8-.61-3.15-1.38-4.03-2.32-.88-.93-1.32-2.15-1.32-3.65,0-1.28.3-2.4.9-3.34.6-.95,1.45-1.68,2.56-2.22,1.11-.53,2.4-.8,3.88-.8s2.8.27,3.9.82c1.1.54,1.96,1.29,2.59,2.25.63.96.96,2.08.98,3.36h-3.46c0-.59-.15-1.16-.46-1.73-.3-.56-.76-1.03-1.37-1.39-.61-.36-1.36-.54-2.25-.54-.74-.02-1.4.1-1.99.36-.59.26-1.05.64-1.39,1.14-.34.5-.51,1.1-.51,1.79s.15,1.26.46,1.68c.3.42.73.79,1.29,1.09.55.3,1.21.58,1.97.83.76.25,1.6.53,2.51.83,1.11.37,2.11.82,3,1.35.89.53,1.59,1.22,2.1,2.05s.77,1.91.77,3.21c0,1.13-.29,2.19-.88,3.16-.59.98-1.46,1.78-2.61,2.4-1.15.62-2.6.93-4.34.93Z"/>
        <path d="M221.53,319.55c-1.59,0-3.03-.32-4.34-.96-1.3-.64-2.34-1.62-3.11-2.94-.77-1.32-1.16-3-1.16-5.04v-14.28h3.26v14.32c0,1.37.22,2.5.67,3.38.45.88,1.08,1.53,1.91,1.96.83.42,1.77.64,2.84.64s2.07-.21,2.87-.64c.8-.42,1.43-1.08,1.88-1.96.45-.88.67-2.01.67-3.38v-14.32h3.26v14.28c0,2.04-.39,3.72-1.17,5.04s-1.83,2.29-3.15,2.94c-1.32.64-2.79.96-4.42.96Z"/>
        <path d="M235.91,319.16v-22.83h7.73c1.8,0,3.28.3,4.44.91,1.15.61,2.01,1.42,2.56,2.43s.83,2.16.83,3.44-.28,2.34-.83,3.38c-.55,1.03-1.42,1.86-2.59,2.48-1.17.62-2.67.93-4.5.93h-4.37v9.26h-3.26ZM239.17,307.42h4.27c1.61,0,2.79-.4,3.54-1.19.75-.79,1.13-1.81,1.13-3.05s-.37-2.26-1.11-3c-.74-.74-1.94-1.11-3.59-1.11h-4.24v8.35ZM247.91,319.16l-4.92-10.14h3.59l5.12,10.14h-3.78Z"/>
        <path d="M256.78,319.16v-22.83h14.41v2.67h-11.15v7.3h10.18v2.61h-10.18v7.57h11.15v2.67h-14.41Z"/>
        <path d="M276.51,319.16v-22.83h7.01c2.65,0,4.85.47,6.59,1.4,1.74.94,3.03,2.26,3.86,3.96s1.26,3.73,1.26,6.08-.42,4.37-1.26,6.07c-.84,1.7-2.12,3.01-3.86,3.93-1.74.92-3.94,1.39-6.59,1.39h-7.01ZM279.77,316.42h3.62c2.09,0,3.76-.35,5.01-1.04,1.25-.7,2.14-1.69,2.67-2.98.53-1.29.8-2.83.8-4.61s-.27-3.36-.8-4.66c-.53-1.3-1.42-2.3-2.67-3-1.25-.7-2.92-1.04-5.01-1.04h-3.62v17.35Z"/>
        <path d="M308.25,319.16l8.38-22.83h3.55l8.38,22.83h-3.49l-6.69-18.92-6.72,18.92h-3.42ZM312.03,313.52l.91-2.61h10.73l.91,2.61h-12.56Z"/>
        <path d="M332.93,319.16v-22.83h3.26l11.64,17.51v-17.51h3.26v22.83h-3.26l-11.64-17.48v17.48h-3.26Z"/>
        <path d="M356.97,319.16v-22.83h7.01c2.65,0,4.85.47,6.59,1.4,1.74.94,3.03,2.26,3.86,3.96s1.26,3.73,1.26,6.08-.42,4.37-1.26,6.07c-.84,1.7-2.12,3.01-3.86,3.93-1.74.92-3.94,1.39-6.59,1.39h-7.01ZM360.23,316.42h3.62c2.09,0,3.76-.35,5.01-1.04,1.25-.7,2.14-1.69,2.67-2.98.53-1.29.8-2.83.8-4.61s-.27-3.36-.8-4.66c-.53-1.3-1.42-2.3-2.67-3-1.25-.7-2.92-1.04-5.01-1.04h-3.62v17.35Z"/>
        <path d="M390.17,319.16v-22.83h3.26v22.83h-3.26Z"/>
        <path d="M399.3,319.16v-22.83h3.26l11.64,17.51v-17.51h3.26v22.83h-3.26l-11.64-17.48v17.48h-3.26Z"/>
        <path d="M430.77,319.55c-1.65,0-3.11-.3-4.37-.9s-2.24-1.44-2.94-2.53c-.7-1.09-1.04-2.36-1.04-3.82h3.42c0,.83.2,1.58.59,2.27.39.68.95,1.23,1.68,1.63s1.61.6,2.66.6c.91,0,1.7-.15,2.36-.46s1.17-.72,1.52-1.26c.35-.53.52-1.15.52-1.84,0-.8-.18-1.46-.54-1.97-.36-.51-.84-.93-1.45-1.27s-1.33-.64-2.15-.91c-.83-.27-1.68-.55-2.58-.83-1.8-.61-3.15-1.38-4.03-2.32-.88-.93-1.32-2.15-1.32-3.65,0-1.28.3-2.4.9-3.34.6-.95,1.45-1.68,2.56-2.22,1.11-.53,2.4-.8,3.88-.8s2.8.27,3.9.82c1.1.54,1.96,1.29,2.59,2.25.63.96.96,2.08.98,3.36h-3.46c0-.59-.15-1.16-.46-1.73-.3-.56-.76-1.03-1.37-1.39-.61-.36-1.36-.54-2.25-.54-.74-.02-1.4.1-1.99.36s-1.05.64-1.39,1.14c-.34.5-.51,1.1-.51,1.79s.15,1.26.46,1.68c.3.42.73.79,1.29,1.09.55.3,1.21.58,1.97.83s1.6.53,2.51.83c1.11.37,2.11.82,3,1.35.89.53,1.59,1.22,2.1,2.05s.77,1.91.77,3.21c0,1.13-.29,2.19-.88,3.16-.59.98-1.46,1.78-2.61,2.4-1.15.62-2.6.93-4.34.93Z"/>
        <path d="M452,319.55c-1.59,0-3.03-.32-4.34-.96-1.3-.64-2.34-1.62-3.11-2.94s-1.16-3-1.16-5.04v-14.28h3.26v14.32c0,1.37.22,2.5.67,3.38.45.88,1.08,1.53,1.91,1.96s1.77.64,2.84.64,2.07-.21,2.87-.64c.8-.42,1.43-1.08,1.88-1.96.45-.88.67-2.01.67-3.38v-14.32h3.26v14.28c0,2.04-.39,3.72-1.17,5.04-.78,1.32-1.83,2.29-3.15,2.94-1.32.64-2.79.96-4.42.96Z"/>
        <path d="M466.38,319.16v-22.83h7.73c1.8,0,3.28.3,4.43.91,1.15.61,2.01,1.42,2.56,2.43s.83,2.16.83,3.44-.28,2.34-.83,3.38c-.55,1.03-1.42,1.86-2.59,2.48-1.17.62-2.67.93-4.5.93h-4.37v9.26h-3.26ZM469.64,307.42h4.27c1.61,0,2.79-.4,3.54-1.19s1.12-1.81,1.12-3.05-.37-2.26-1.11-3-1.93-1.11-3.59-1.11h-4.24v8.35ZM478.38,319.16l-4.92-10.14h3.59l5.12,10.14h-3.78Z"/>
        <path d="M487.25,319.16v-22.83h14.42v2.67h-11.15v7.3h10.18v2.61h-10.18v7.57h11.15v2.67h-14.42Z"/>
        <path d="M506.99,319.16v-22.83h7.01c2.65,0,4.85.47,6.59,1.4,1.74.94,3.03,2.26,3.86,3.96s1.26,3.73,1.26,6.08-.42,4.37-1.26,6.07c-.84,1.7-2.12,3.01-3.86,3.93-1.74.92-3.94,1.39-6.59,1.39h-7.01ZM510.25,316.42h3.62c2.09,0,3.76-.35,5.01-1.04,1.25-.7,2.14-1.69,2.67-2.98.53-1.29.8-2.83.8-4.61s-.27-3.36-.8-4.66c-.53-1.3-1.42-2.3-2.67-3-1.25-.7-2.92-1.04-5.01-1.04h-3.62v17.35Z"/>
      </g>
    </g>
  </g>
</svg>